<?xml version="1.0" encoding="iso-8859-1"?>
<!-- Generator: Adobe Illustrator 19.0.0, SVG Export Plug-In . SVG Version: 6.00 Build 0)  -->
<svg version="1.1" id="Capa_1" xmlns="http://www.w3.org/2000/svg" xmlns:xlink="http://www.w3.org/1999/xlink" x="0px" y="0px"
	 viewBox="0 0 511.999 511.999" style="enable-background:new 0 0 511.999 511.999;" xml:space="preserve">
<g>
	<path style="fill:#455256;" d="M108.405,301.714c-55.674,0-100.806,45.132-100.806,100.805s45.132,100.806,100.806,100.806
		s100.806-45.132,100.806-100.806S164.079,301.714,108.405,301.714z M108.405,478.761c-42.107,0-76.241-34.134-76.241-76.241
		s34.135-76.241,76.241-76.241s76.241,34.134,76.241,76.241C184.646,444.627,150.512,478.761,108.405,478.761z"/>
	<path style="fill:#455256;" d="M403.595,301.714c-55.674,0-100.806,45.132-100.806,100.806s45.132,100.806,100.806,100.806
		s100.806-45.132,100.806-100.806S459.269,301.714,403.595,301.714z M403.595,478.761c-42.107,0-76.241-34.134-76.241-76.241
		s34.135-76.241,76.241-76.241s76.241,34.134,76.241,76.241C479.836,444.627,445.702,478.761,403.595,478.761z"/>
</g>
<path style="fill:#F9DCA2;" d="M289.939,74.472c0,31.584,25.603,57.187,57.187,57.187s57.187-25.603,57.187-57.187l-52.121-33.546
	L289.939,74.472z"/>
<path style="fill:#E5C691;" d="M317.328,74.472l47.364-25.523l-12.466-8.023l-62.252,33.546c0,31.584,25.603,57.187,57.187,57.187
	c4.716,0,9.294-0.583,13.677-1.658C335.862,123.869,317.328,101.341,317.328,74.472z"/>
<path style="fill:#7FDD36;" d="M289.973,76.143c-17.639,2.32-34.69,10.263-48.246,23.809c0,0-49.097,49.127-49.664,49.755
	c-17.021,18.905-16.433,48.043,1.763,66.239l96.441-28.115L289.973,76.143z"/>
<path style="fill:#70C129;" d="M216.379,149.707c0.567-0.628,49.664-49.755,49.664-49.755c7.151-7.146,15.28-12.715,23.949-16.739
	l-0.018-7.07c-17.639,2.32-34.69,10.263-48.246,23.809c0,0-49.097,49.127-49.664,49.755c-17.021,18.905-16.433,48.043,1.763,66.239
	l19.461-5.674C200.008,192.111,201.034,166.752,216.379,149.707z"/>
<path style="fill:#F9DCA2;" d="M309.78,132.039l-1.276,55.792l61.194,25.195c13.175,5.425,19.835,20.778,14.162,33.848
	c-5.5,12.669-20.159,18.653-32.987,13.37l-77.892-32.071c-1.553-0.639-3.019-1.421-4.383-2.327
	c-7.185-4.77-11.569-12.963-11.346-21.812l1.714-73.272c0.353-14.032,12.014-25.121,26.046-24.768l0,0
	C299.044,106.347,310.133,118.008,309.78,132.039z"/>
<path style="fill:#E5C691;" d="M374.175,257.204l-77.892-32.071c-1.553-0.639-3.019-1.421-4.383-2.327
	c-7.185-4.77-11.569-12.963-11.346-21.811l1.714-73.272c0.211-8.385,4.462-15.717,10.842-20.187
	c-2.533-0.927-5.253-1.47-8.099-1.541l0,0c-14.032-0.353-25.692,10.736-26.046,24.768l-1.714,73.272
	c-0.223,8.848,4.161,17.041,11.346,21.811c1.364,0.906,2.83,1.688,4.383,2.327l77.892,32.071c8.31,3.422,17.386,2.111,24.245-2.678
	C374.804,257.45,374.489,257.334,374.175,257.204z"/>
<path style="fill:#F9DCA2;" d="M284.249,241.892c5.582,5.582,7.882,13.657,6.069,21.347l-22.796,96.876
	c-2.847,12.097-14.711,20.161-26.889,17.659c-4.549-0.932-8.49-3.161-11.54-6.2c-5.4-5.39-7.953-13.373-6.079-21.357l20.02-85.063
	l-49.208-49.208c-18.196-18.196-18.784-47.334-1.763-66.239L284.249,241.892z"/>
<path style="fill:#E5C691;" d="M244.291,371.574c-5.4-5.39-7.953-13.373-6.079-21.357l20.02-85.063l-49.208-49.208
	c-15.539-15.539-18.225-39.051-8.083-57.362l-8.877-8.877c-17.021,18.905-16.433,48.043,1.763,66.239l49.208,49.208l-20.02,85.063
	c-1.874,7.984,0.679,15.967,6.079,21.357c3.05,3.039,6.991,5.268,11.54,6.2c4.171,0.857,8.306,0.473,12.053-0.886
	C249.456,375.729,246.614,373.889,244.291,371.574z"/>
<path style="fill:#E22342;" d="M284.249,241.892l-31.499,17.781l-9.716,5.481l-49.208-49.208
	c-18.196-18.196-18.784-47.334-1.763-66.239L284.249,241.892z"/>
<path style="fill:#C9183A;" d="M252.751,259.673l-9.716,5.481l-49.208-49.208c-18.196-18.196-18.784-47.334-1.763-66.239
	l8.875,8.875c-10.142,18.318-7.457,41.822,8.085,57.364L252.751,259.673z"/>
<path style="fill:#E22342;" d="M281.16,74.472h118.624c12.14,0,20.643-12.034,16.533-23.458c-6.797-18.9-24.28-42.341-69.191-42.341
	c-34.654,0-61.111,28.338-75.204,47.819C266.501,63.986,271.91,74.472,281.16,74.472z"/>
<path style="fill:#C9183A;" d="M309.052,56.492c10.463-17.319,29.088-41.619,53.423-46.805c-4.723-0.657-9.826-1.014-15.348-1.014
	c-34.654,0-61.111,28.338-75.204,47.819c-5.421,7.494-0.011,17.98,9.238,17.98h35.606C309.042,74.472,304.524,63.986,309.052,56.492
	z"/>
<path d="M406.226,294.147c-16.146-0.385-31.524,2.787-45.413,8.776l-19.87-38.549l7.036,2.897c4.055,1.67,8.269,2.46,12.431,2.46
	c12.791-0.001,25.054-7.472,30.419-19.831c0.825-1.9,1.452-3.854,1.896-5.838h10.695c4.161,0,7.789-3.206,7.914-7.365
	c0.13-4.303-3.321-7.833-7.596-7.833h-11.293c-0.372-1.439-0.835-2.866-1.405-4.271c-3.402-8.389-10.127-15.166-18.448-18.593
	l-56.371-23.209l1.156-50.577c0.002-0.073-0.001-0.146,0-0.219c8.916,4.63,19.028,7.263,29.75,7.263
	c34.186,0,62.252-26.62,64.607-60.219c3.39-1.83,6.368-4.428,8.643-7.664c4.697-6.682,5.853-15.255,3.091-22.932
	c-4.723-13.133-12.414-23.812-22.859-31.74c-13.664-10.37-31.658-15.629-53.482-15.629c-14.591,0-28.994,4.472-42.911,13.309
	c-3.741,2.375-4.687,7.424-2.038,10.976l0,0c2.394,3.212,6.846,3.97,10.23,1.827c11.44-7.248,23.092-10.916,34.72-10.916
	c32.102,0,52.928,12.43,61.908,36.946c1.161,3.17,0.814,6.774-1.159,9.513c-1.897,2.634-4.84,4.143-8.092,4.143H281.16
	c-2.088,0-3.052-1.447-3.37-2.069c-0.312-0.61-0.908-2.207,0.288-3.859c3.521-4.866,7.206-9.431,11.008-13.634
	c2.72-3.008,2.631-7.606-0.232-10.478l-0.001-0.001c-3.063-3.072-8.086-2.978-10.996,0.238c-4.186,4.626-8.236,9.637-12.091,14.966
	c-4.179,5.778-4.758,13.319-1.509,19.68c0.542,1.061,1.179,2.048,1.887,2.967c-11.039,4.538-21.118,11.23-29.79,19.895
	l-47.901,47.901c-0.682,0.682-1.35,1.384-1.994,2.095c-0.029,0.031-0.059,0.064-0.087,0.096
	c-19.79,22.032-18.881,55.686,2.081,76.647l3.274,3.274h-45.927c-4.161,0-7.789,3.206-7.914,7.365
	c-0.13,4.303,3.321,7.833,7.595,7.833h18.758l18.827,33.047l-22.416,34.727c-16.632-9.188-35.917-14.139-56.393-13.371
	C46.915,296.345,0.823,343.58,0.011,400.959c-0.855,60.486,48.1,109.965,108.394,109.965c57.221,0,104.223-44.566,108.134-100.81
	h49.149c2.733,0,5.255-1.468,6.606-3.844l65.39-115.05l9.629,18.681c-32.17,19.621-53.373,55.525-52.066,96.172
	c1.827,56.809,47.915,102.928,104.723,104.79c61.736,2.024,112.548-47.875,112.025-109.284
	C511.5,343.362,464.429,295.535,406.226,294.147z M366.805,220.051c4.087,1.683,7.466,4.852,9.482,8.812h-15.1
	c-4.196,0-7.599,3.402-7.599,7.599c0,4.196,3.402,7.599,7.599,7.599h15.597c-3.912,8.687-14.179,12.794-23.017,9.157l-26.034-10.719
	c-0.021-0.009-0.042-0.017-0.063-0.025l-51.796-21.327c-1.076-0.443-2.11-0.992-3.073-1.631c-5.136-3.409-8.108-9.124-7.953-15.303
	l1.713-73.259c0.243-9.668,8.186-17.368,17.805-17.368c0.151,0,0.302,0.001,0.454,0.005c9.82,0.247,17.609,8.437,17.363,18.258
	c0,0.006,0,0.011,0,0.017l-1.276,55.792c-0.072,3.142,1.797,6.004,4.704,7.199L366.805,220.051z M242.159,370.331
	c-2.922-0.599-5.584-2.029-7.697-4.136c-3.751-3.743-5.264-9.068-4.051-14.238l17.73-75.336c0.002-0.012,0.006-0.022,0.008-0.034
	l1.519-6.452l32.369-18.269c1.321,2.976,1.662,6.335,0.884,9.633l-2.806,11.929c-0.01,0.044-0.022,0.086-0.031,0.131l-19.958,84.816
	C258.189,366.605,250.132,371.968,242.159,370.331z M223.814,313.657l-17.658-30.995h24.953L223.814,313.657z M298.12,82.071h27.1
	v36.874C311.009,111.916,300.624,98.28,298.12,82.071z M347.127,124.06c-2.277,0-4.513-0.168-6.709-0.466V82.071h24.315v6.473
	c0,4.196,3.402,7.599,7.599,7.599c4.196,0,7.599-3.402,7.599-7.599v-6.473h16.202C392.465,105.82,371.887,124.06,347.127,124.06z
	 M247.099,105.326c10.097-10.089,22.471-16.979,36.131-20.214c0.771,4.644,2.04,9.121,3.747,13.38
	c-0.587-0.046-1.177-0.079-1.773-0.093c-18.167-0.462-33.375,13.975-33.833,32.186l-1.547,66.136l-47.059-47.058L247.099,105.326z
	 M192.919,161.308l63.744,63.744c1.572,1.999,3.398,3.819,5.435,5.436l9.705,9.705l-27.476,15.508L199.2,210.574
	C185.889,197.262,183.692,176.916,192.919,161.308z M203.417,239.79c1.036,0,2.023-0.209,2.924-0.585l28.258,28.258h-37.101
	l-15.766-27.674H203.417z M191.548,287.722l27.152,47.66l-3.083,13.098c-2.427,10.338,0.604,20.982,8.112,28.475
	c4.223,4.21,9.541,7.067,15.373,8.262c1.971,0.404,3.943,0.6,5.894,0.6c0.796,0,1.588-0.041,2.375-0.104l5.242,9.203h-36.077
	c-2.248-32.289-18.694-60.728-43.128-79.094L191.548,287.722z M191.884,394.917c-2.137-23.652-14.136-44.489-31.845-58.378
	l5.107-7.913c20.272,15.603,33.97,39.343,36.155,66.29h-9.417V394.917z M101.736,406.151c1.33,2.444,3.89,3.963,6.673,3.963h68.209
	c-3.792,34.288-32.931,61.048-68.213,61.048c-37.85,0-68.642-30.793-68.642-68.642s30.793-68.642,68.642-68.642
	c10.993,0,21.38,2.612,30.601,7.225l-36.981,57.293C100.516,400.732,100.406,403.707,101.736,406.151z M122.358,394.917
	l29.409-45.563c13.567,11.086,22.822,27.249,24.85,45.563L122.358,394.917L122.358,394.917z M108.405,495.727
	c-51.395,0-93.208-41.812-93.208-93.208c0-51.395,41.813-93.208,93.208-93.208c15.898,0,30.876,4.005,43.986,11.052l-5.106,7.912
	c-11.63-6.115-24.853-9.595-38.88-9.595c-46.23,0-83.839,37.611-83.839,83.839c0,46.23,37.611,83.839,83.839,83.839
	c43.668,0,79.627-33.563,83.48-76.245h9.416C197.423,457.971,157.242,495.727,108.405,495.727z M265.681,387.15l-3.746-6.576
	c6.303-4.241,11.118-10.795,12.983-18.719l18.635-79.194h31.515L265.681,387.15z M297.13,267.464l0.584-2.48
	c1.541-6.536,0.888-13.196-1.698-19.11l23.226,9.563l6.199,12.028H297.13V267.464z M403.595,495.727
	c-51.395,0-93.208-41.813-93.208-93.208c0-33.306,17.563-62.582,43.91-79.067l4.315,8.373
	c-23.338,14.901-38.858,41.012-38.858,70.696c0,46.23,37.611,83.839,83.839,83.839c10.575,0,20.888-1.945,30.653-5.783
	c3.906-1.535,5.828-5.945,4.294-9.851c-1.535-3.906-5.947-5.829-9.851-4.294c-7.988,3.139-16.43,4.729-25.095,4.729
	c-37.85,0-68.642-30.793-68.642-68.642c0-23.809,12.189-44.818,30.651-57.134l31.24,60.611c1.348,2.617,4.006,4.118,6.761,4.118
	c1.171,0,2.362-0.273,3.475-0.846c3.73-1.922,5.195-6.505,3.272-10.236l-31.247-60.624c7.612-2.918,15.865-4.533,24.491-4.533
	c37.85,0,68.642,30.793,68.642,68.642c0,19.359-8.239,37.918-22.605,50.916c-3.112,2.815-3.352,7.621-0.537,10.733
	c2.817,3.112,7.621,3.352,10.733,0.536c17.544-15.874,27.606-38.54,27.606-62.185c0-46.229-37.611-83.839-83.839-83.839
	c-11.133,0-21.757,2.2-31.486,6.158l-4.315-8.372c11.029-4.606,23.122-7.155,35.801-7.155c51.396,0,93.208,41.813,93.208,93.208
	C496.803,453.915,454.99,495.727,403.595,495.727z"/>
<g>
</g>
<g>
</g>
<g>
</g>
<g>
</g>
<g>
</g>
<g>
</g>
<g>
</g>
<g>
</g>
<g>
</g>
<g>
</g>
<g>
</g>
<g>
</g>
<g>
</g>
<g>
</g>
<g>
</g>
</svg>
